<svg xmlns="http://www.w3.org/2000/svg" viewBox="0 0 512 512">
  <path fill="#e34f26" d="M71,460 L30,0 481,0 440,460 255,512"/>
  <path fill="#ef652a" d="M256,472 L405,431 440,37 256,37"/>
  <path fill="#ffffff" d="M256,208 L181,208 176,150 256,150 256,94 255,94 114,94 115,109 129,265 256,265zM256,355 L255,355 192,338 188,293 158,293 132,293 139,382 255,414 256,414z"/>
  <path fill="#ebebeb" d="M256,208 L256,265 195,265 187,338 256,355 256,414 139,382 131,293 121,109 114,94 256,94z"/>
  <path fill="#ffffff" d="M255,208 L255,150 255,150 335,150 335,150 336,150 340,109 341,94 255,94z M255,355 L255,355 255,338 255,293 255,293 320,293 320,293 320,293 319,318 314,382z"/>
</svg> 